<?xml version="1.0" standalone="no"?>
<!DOCTYPE svg PUBLIC "-//W3C//DTD SVG 20010904//EN"
 "http://www.w3.org/TR/2001/REC-SVG-20010904/DTD/svg10.dtd">
<svg version="1.0" xmlns="http://www.w3.org/2000/svg"
 width="260.000000pt" height="260.000000pt" viewBox="0 0 260.000000 260.000000"
 preserveAspectRatio="xMidYMid meet">
<metadata>
Created by potrace 1.11, written by Peter Selinger 2001-2013
</metadata>
<g transform="translate(0.000000,260.000000) scale(0.100000,-0.100000)"
fill="#000000" stroke="none">
<path d="M120 2582 c-30 -20 -101 -88 -101 -96 3 -20 0 -26 -9 -21 -7 4 -10
-383 -10 -1155 0 -1070 1 -1163 17 -1188 28 -46 66 -83 105 -103 36 -18 75
-19 1188 -19 760 0 1150 3 1150 10 0 6 9 10 20 10 11 0 20 4 20 8 0 5 11 15
25 22 14 7 23 16 20 18 -3 3 4 12 15 19 11 8 18 18 15 23 -3 4 2 13 10 20 13
11 15 157 15 1172 0 838 -3 1157 -11 1152 -7 -4 -10 1 -7 12 4 20 -5 34 -36
62 -10 9 -27 24 -36 32 -46 41 -13 40 -1212 39 -1060 0 -1155 -1 -1178 -17z"/>
</g>
</svg>
